solid 0
facet normal 0 0 -1
outer loop
vertex 0 3 0
vertex 3 3 0
vertex 3 0 0
endloop
endfacet
facet normal 0 0 -1
outer loop
vertex 0 3 0
vertex 3 0 0
vertex 0 0 0
endloop
endfacet
facet normal 0 -1 0
outer loop
vertex 0 0 0
vertex 3 0 0
vertex 3 0 56.5
endloop
endfacet
facet normal 0 -1 0
outer loop
vertex 0 0 0
vertex 3 0 56.5
vertex 0 0 56.5
endloop
endfacet
facet normal 1 0 0
outer loop
vertex 3 0 0
vertex 3 3 0
vertex 3 3 56.5
endloop
endfacet
facet normal 1 0 0
outer loop
vertex 3 0 0
vertex 3 3 56.5
vertex 3 0 56.5
endloop
endfacet
facet normal 0 1 0
outer loop
vertex 3 3 0
vertex 0 3 0
vertex 0 3 56.5
endloop
endfacet
facet normal 0 1 0
outer loop
vertex 3 3 0
vertex 0 3 56.5
vertex 3 3 56.5
endloop
endfacet
facet normal -1 0 0
outer loop
vertex 0 3 0
vertex 0 0 0
vertex 0 0 56.5
endloop
endfacet
facet normal -1 0 0
outer loop
vertex 0 3 0
vertex 0 0 56.5
vertex 0 3 56.5
endloop
endfacet
facet normal 0 0 1
outer loop
vertex 0 0 56.5
vertex 3 0 56.5
vertex 3 3 56.5
endloop
endfacet
facet normal 0 0 1
outer loop
vertex 0 0 56.5
vertex 3 3 56.5
vertex 0 3 56.5
endloop
endfacet
endsolid
solid 2
facet normal 0 0 -1
outer loop
vertex 26 3 0
vertex 29 3 0
vertex 29 0 0
endloop
endfacet
facet normal 0 0 -1
outer loop
vertex 26 3 0
vertex 29 0 0
vertex 26 0 0
endloop
endfacet
facet normal 0 -1 0
outer loop
vertex 26 0 0
vertex 29 0 0
vertex 29 0 27.3999996185303
endloop
endfacet
facet normal 0 -1 0
outer loop
vertex 26 0 0
vertex 29 0 27.3999996185303
vertex 26 0 27.3999996185303
endloop
endfacet
facet normal 1 0 0
outer loop
vertex 29 0 0
vertex 29 3 0
vertex 29 3 27.3999996185303
endloop
endfacet
facet normal 1 0 0
outer loop
vertex 29 0 0
vertex 29 3 27.3999996185303
vertex 29 0 27.3999996185303
endloop
endfacet
facet normal 0 1 0
outer loop
vertex 29 3 0
vertex 26 3 0
vertex 26 3 27.3999996185303
endloop
endfacet
facet normal 0 1 0
outer loop
vertex 29 3 0
vertex 26 3 27.3999996185303
vertex 29 3 27.3999996185303
endloop
endfacet
facet normal -1 0 0
outer loop
vertex 26 3 0
vertex 26 0 0
vertex 26 0 27.3999996185303
endloop
endfacet
facet normal -1 0 0
outer loop
vertex 26 3 0
vertex 26 0 27.3999996185303
vertex 26 3 27.3999996185303
endloop
endfacet
facet normal 0 0 1
outer loop
vertex 26 0 27.3999996185303
vertex 29 0 27.3999996185303
vertex 29 3 27.3999996185303
endloop
endfacet
facet normal 0 0 1
outer loop
vertex 26 0 27.3999996185303
vertex 29 3 27.3999996185303
vertex 26 3 27.3999996185303
endloop
endfacet
endsolid
solid 4
facet normal 0 0 -1
outer loop
vertex 26 26 0
vertex 29 26 0
vertex 29 23 0
endloop
endfacet
facet normal 0 0 -1
outer loop
vertex 26 26 0
vertex 29 23 0
vertex 26 23 0
endloop
endfacet
facet normal 0 -1 0
outer loop
vertex 26 23 0
vertex 29 23 0
vertex 29 23 27.3999996185303
endloop
endfacet
facet normal 0 -1 0
outer loop
vertex 26 23 0
vertex 29 23 27.3999996185303
vertex 26 23 27.3999996185303
endloop
endfacet
facet normal 1 0 0
outer loop
vertex 29 23 0
vertex 29 26 0
vertex 29 26 27.3999996185303
endloop
endfacet
facet normal 1 0 0
outer loop
vertex 29 23 0
vertex 29 26 27.3999996185303
vertex 29 23 27.3999996185303
endloop
endfacet
facet normal 0 1 0
outer loop
vertex 29 26 0
vertex 26 26 0
vertex 26 26 27.3999996185303
endloop
endfacet
facet normal 0 1 0
outer loop
vertex 29 26 0
vertex 26 26 27.3999996185303
vertex 29 26 27.3999996185303
endloop
endfacet
facet normal -1 0 0
outer loop
vertex 26 26 0
vertex 26 23 0
vertex 26 23 27.3999996185303
endloop
endfacet
facet normal -1 0 0
outer loop
vertex 26 26 0
vertex 26 23 27.3999996185303
vertex 26 26 27.3999996185303
endloop
endfacet
facet normal 0 0 1
outer loop
vertex 26 23 27.3999996185303
vertex 29 23 27.3999996185303
vertex 29 26 27.3999996185303
endloop
endfacet
facet normal 0 0 1
outer loop
vertex 26 23 27.3999996185303
vertex 29 26 27.3999996185303
vertex 26 26 27.3999996185303
endloop
endfacet
endsolid
solid 6
facet normal 0 0 -1
outer loop
vertex 0 26 0
vertex 3 26 0
vertex 3 23 0
endloop
endfacet
facet normal 0 0 -1
outer loop
vertex 0 26 0
vertex 3 23 0
vertex 0 23 0
endloop
endfacet
facet normal 0 -1 0
outer loop
vertex 0 23 0
vertex 3 23 0
vertex 3 23 56.5
endloop
endfacet
facet normal 0 -1 0
outer loop
vertex 0 23 0
vertex 3 23 56.5
vertex 0 23 56.5
endloop
endfacet
facet normal 1 0 0
outer loop
vertex 3 23 0
vertex 3 26 0
vertex 3 26 56.5
endloop
endfacet
facet normal 1 0 0
outer loop
vertex 3 23 0
vertex 3 26 56.5
vertex 3 23 56.5
endloop
endfacet
facet normal 0 1 0
outer loop
vertex 3 26 0
vertex 0 26 0
vertex 0 26 56.5
endloop
endfacet
facet normal 0 1 0
outer loop
vertex 3 26 0
vertex 0 26 56.5
vertex 3 26 56.5
endloop
endfacet
facet normal -1 0 0
outer loop
vertex 0 26 0
vertex 0 23 0
vertex 0 23 56.5
endloop
endfacet
facet normal -1 0 0
outer loop
vertex 0 26 0
vertex 0 23 56.5
vertex 0 26 56.5
endloop
endfacet
facet normal 0 0 1
outer loop
vertex 0 23 56.5
vertex 3 23 56.5
vertex 3 26 56.5
endloop
endfacet
facet normal 0 0 1
outer loop
vertex 0 23 56.5
vertex 3 26 56.5
vertex 0 26 56.5
endloop
endfacet
endsolid
solid 8
facet normal 0 0 -1
outer loop
vertex 3.09999990463257 23 27.3999996185303
vertex 3.09999990463257 3 27.3999996185303
vertex -0.300000011920929 22.7999992370605 27.3999996185303
endloop
endfacet
facet normal 0 0 -1
outer loop
vertex -0.300000011920929 2.79999995231628 27.3999996185303
vertex -0.300000011920929 22.7999992370605 27.3999996185303
vertex 3.09999990463257 3 27.3999996185303
endloop
endfacet
facet normal 0 0 -1
outer loop
vertex 3.09999990463257 3 27.3999996185303
vertex 4.5 -0.200000002980232 27.3999996185303
vertex 3.09999990463257 -0.200000002980232 27.3999996185303
endloop
endfacet
facet normal 0 0 -1
outer loop
vertex 3.09999990463257 23 27.3999996185303
vertex 4.5 25.7999992370605 27.3999996185303
vertex 3.09999990463257 3 27.3999996185303
endloop
endfacet
facet normal 0 0 -1
outer loop
vertex 4.5 -0.200000002980232 27.3999996185303
vertex 3.09999990463257 3 27.3999996185303
vertex 4.5 25.7999992370605 27.3999996185303
endloop
endfacet
facet normal 0 0 -1
outer loop
vertex 3.09999990463257 23 27.3999996185303
vertex 3.09999990463257 25.7999992370605 27.3999996185303
vertex 4.5 25.7999992370605 27.3999996185303
endloop
endfacet
facet normal -1 0 0
outer loop
vertex 3.09999990463257 3 27.3999996185303
vertex 3.09999990463257 -0.200000002980232 27.3999996185303
vertex 3.09999990463257 -0.200000002980232 29
endloop
endfacet
facet normal -1 0 0
outer loop
vertex 3.09999990463257 3 27.3999996185303
vertex 3.09999990463257 -0.200000002980232 29
vertex 3.09999990463257 3 29
endloop
endfacet
facet normal 0 -1 0
outer loop
vertex 3.09999990463257 -0.200000002980232 27.3999996185303
vertex 4.5 -0.200000002980232 27.3999996185303
vertex 4.5 -0.200000002980232 29
endloop
endfacet
facet normal 0 -1 0
outer loop
vertex 3.09999990463257 -0.200000002980232 27.3999996185303
vertex 4.5 -0.200000002980232 29
vertex 3.09999990463257 -0.200000002980232 29
endloop
endfacet
facet normal 1 0 0
outer loop
vertex 4.5 -0.200000002980232 27.3999996185303
vertex 4.5 25.7999992370605 27.3999996185303
vertex 4.5 25.7999992370605 29
endloop
endfacet
facet normal 1 0 0
outer loop
vertex 4.5 -0.200000002980232 27.3999996185303
vertex 4.5 25.7999992370605 29
vertex 4.5 -0.200000002980232 29
endloop
endfacet
facet normal 0 1 0
outer loop
vertex 4.5 25.7999992370605 27.3999996185303
vertex 3.09999990463257 25.7999992370605 27.3999996185303
vertex 3.09999990463257 25.7999992370605 29
endloop
endfacet
facet normal 0 1 0
outer loop
vertex 4.5 25.7999992370605 27.3999996185303
vertex 3.09999990463257 25.7999992370605 29
vertex 4.5 25.7999992370605 29
endloop
endfacet
facet normal -1 0 0
outer loop
vertex 3.09999990463257 25.7999992370605 27.3999996185303
vertex 3.09999990463257 23 27.3999996185303
vertex 3.09999990463257 23 29
endloop
endfacet
facet normal -1 0 0
outer loop
vertex 3.09999990463257 25.7999992370605 27.3999996185303
vertex 3.09999990463257 23 29
vertex 3.09999990463257 25.7999992370605 29
endloop
endfacet
facet normal -0.058722246622021 0.998274359959056 0
outer loop
vertex 3.09999990463257 23 27.3999996185303
vertex -0.300000011920929 22.7999992370605 27.3999996185303
vertex -0.300000011920929 22.7999992370605 29
endloop
endfacet
facet normal -0.058722246622021 0.998274359959056 0
outer loop
vertex 3.09999990463257 23 27.3999996185303
vertex -0.300000011920929 22.7999992370605 29
vertex 3.09999990463257 23 29
endloop
endfacet
facet normal -1 0 0
outer loop
vertex -0.300000011920929 22.7999992370605 27.3999996185303
vertex -0.300000011920929 2.79999995231628 27.3999996185303
vertex -0.300000011920929 2.79999995231628 29
endloop
endfacet
facet normal -1 0 0
outer loop
vertex -0.300000011920929 22.7999992370605 27.3999996185303
vertex -0.300000011920929 2.79999995231628 29
vertex -0.300000011920929 22.7999992370605 29
endloop
endfacet
facet normal 0.0587220373398645 -0.998274372269796 0
outer loop
vertex -0.300000011920929 2.79999995231628 27.3999996185303
vertex 3.09999990463257 3 27.3999996185303
vertex 3.09999990463257 3 29
endloop
endfacet
facet normal 0.0587220373398645 -0.998274372269796 0
outer loop
vertex -0.300000011920929 2.79999995231628 27.3999996185303
vertex 3.09999990463257 3 29
vertex -0.300000011920929 2.79999995231628 29
endloop
endfacet
facet normal 0 0 1
outer loop
vertex 3.09999990463257 23 29
vertex -0.300000011920929 22.7999992370605 29
vertex 3.09999990463257 3 29
endloop
endfacet
facet normal 0 0 1
outer loop
vertex -0.300000011920929 2.79999995231628 29
vertex 3.09999990463257 3 29
vertex -0.300000011920929 22.7999992370605 29
endloop
endfacet
facet normal 0 0 1
outer loop
vertex 3.09999990463257 3 29
vertex 3.09999990463257 -0.200000002980232 29
vertex 4.5 -0.200000002980232 29
endloop
endfacet
facet normal 0 0 1
outer loop
vertex 3.09999990463257 23 29
vertex 3.09999990463257 3 29
vertex 4.5 25.7999992370605 29
endloop
endfacet
facet normal 0 0 1
outer loop
vertex 4.5 -0.200000002980232 29
vertex 4.5 25.7999992370605 29
vertex 3.09999990463257 3 29
endloop
endfacet
facet normal 0 0 1
outer loop
vertex 3.09999990463257 23 29
vertex 4.5 25.7999992370605 29
vertex 3.09999990463257 25.7999992370605 29
endloop
endfacet
endsolid
solid 10
facet normal 0 0 -1
outer loop
vertex 5 26.3999996185303 27.3999996185303
vertex 9.5 26.3999996185303 27.3999996185303
vertex 9.5 -0.200000002980232 27.3999996185303
endloop
endfacet
facet normal 0 0 -1
outer loop
vertex 5 26.3999996185303 27.3999996185303
vertex 9.5 -0.200000002980232 27.3999996185303
vertex 5 -0.200000002980232 27.3999996185303
endloop
endfacet
facet normal 0 -1 0
outer loop
vertex 5 -0.200000002980232 27.3999996185303
vertex 9.5 -0.200000002980232 27.3999996185303
vertex 9.5 -0.200000002980232 29
endloop
endfacet
facet normal 0 -1 0
outer loop
vertex 5 -0.200000002980232 27.3999996185303
vertex 9.5 -0.200000002980232 29
vertex 5 -0.200000002980232 29
endloop
endfacet
facet normal 1 0 0
outer loop
vertex 9.5 -0.200000002980232 27.3999996185303
vertex 9.5 26.3999996185303 27.3999996185303
vertex 9.5 26.3999996185303 29
endloop
endfacet
facet normal 1 0 0
outer loop
vertex 9.5 -0.200000002980232 27.3999996185303
vertex 9.5 26.3999996185303 29
vertex 9.5 -0.200000002980232 29
endloop
endfacet
facet normal 0 1 0
outer loop
vertex 9.5 26.3999996185303 27.3999996185303
vertex 5 26.3999996185303 27.3999996185303
vertex 5 26.3999996185303 29
endloop
endfacet
facet normal 0 1 0
outer loop
vertex 9.5 26.3999996185303 27.3999996185303
vertex 5 26.3999996185303 29
vertex 9.5 26.3999996185303 29
endloop
endfacet
facet normal -1 0 0
outer loop
vertex 5 26.3999996185303 27.3999996185303
vertex 5 -0.200000002980232 27.3999996185303
vertex 5 -0.200000002980232 29
endloop
endfacet
facet normal -1 0 0
outer loop
vertex 5 26.3999996185303 27.3999996185303
vertex 5 -0.200000002980232 29
vertex 5 26.3999996185303 29
endloop
endfacet
facet normal 0 0 1
outer loop
vertex 5 -0.200000002980232 29
vertex 9.5 -0.200000002980232 29
vertex 9.5 26.3999996185303 29
endloop
endfacet
facet normal 0 0 1
outer loop
vertex 5 -0.200000002980232 29
vertex 9.5 26.3999996185303 29
vertex 5 26.3999996185303 29
endloop
endfacet
endsolid
solid 12
facet normal 0 0 -1
outer loop
vertex 10 26.3999996185303 27.3999996185303
vertex 14.5 26.3999996185303 27.3999996185303
vertex 14.5 -0.200000002980232 27.3999996185303
endloop
endfacet
facet normal 0 0 -1
outer loop
vertex 10 26.3999996185303 27.3999996185303
vertex 14.5 -0.200000002980232 27.3999996185303
vertex 10 -0.200000002980232 27.3999996185303
endloop
endfacet
facet normal 0 -1 0
outer loop
vertex 10 -0.200000002980232 27.3999996185303
vertex 14.5 -0.200000002980232 27.3999996185303
vertex 14.5 -0.200000002980232 29
endloop
endfacet
facet normal 0 -1 0
outer loop
vertex 10 -0.200000002980232 27.3999996185303
vertex 14.5 -0.200000002980232 29
vertex 10 -0.200000002980232 29
endloop
endfacet
facet normal 1 0 0
outer loop
vertex 14.5 -0.200000002980232 27.3999996185303
vertex 14.5 26.3999996185303 27.3999996185303
vertex 14.5 26.3999996185303 29
endloop
endfacet
facet normal 1 0 0
outer loop
vertex 14.5 -0.200000002980232 27.3999996185303
vertex 14.5 26.3999996185303 29
vertex 14.5 -0.200000002980232 29
endloop
endfacet
facet normal 0 1 0
outer loop
vertex 14.5 26.3999996185303 27.3999996185303
vertex 10 26.3999996185303 27.3999996185303
vertex 10 26.3999996185303 29
endloop
endfacet
facet normal 0 1 0
outer loop
vertex 14.5 26.3999996185303 27.3999996185303
vertex 10 26.3999996185303 29
vertex 14.5 26.3999996185303 29
endloop
endfacet
facet normal -1 0 0
outer loop
vertex 10 26.3999996185303 27.3999996185303
vertex 10 -0.200000002980232 27.3999996185303
vertex 10 -0.200000002980232 29
endloop
endfacet
facet normal -1 0 0
outer loop
vertex 10 26.3999996185303 27.3999996185303
vertex 10 -0.200000002980232 29
vertex 10 26.3999996185303 29
endloop
endfacet
facet normal 0 0 1
outer loop
vertex 10 -0.200000002980232 29
vertex 14.5 -0.200000002980232 29
vertex 14.5 26.3999996185303 29
endloop
endfacet
facet normal 0 0 1
outer loop
vertex 10 -0.200000002980232 29
vertex 14.5 26.3999996185303 29
vertex 10 26.3999996185303 29
endloop
endfacet
endsolid
solid 14
facet normal 0 0 -1
outer loop
vertex 15 26.3999996185303 27.3999996185303
vertex 19.5 26.3999996185303 27.3999996185303
vertex 19.5 -0.200000002980232 27.3999996185303
endloop
endfacet
facet normal 0 0 -1
outer loop
vertex 15 26.3999996185303 27.3999996185303
vertex 19.5 -0.200000002980232 27.3999996185303
vertex 15 -0.200000002980232 27.3999996185303
endloop
endfacet
facet normal 0 -1 0
outer loop
vertex 15 -0.200000002980232 27.3999996185303
vertex 19.5 -0.200000002980232 27.3999996185303
vertex 19.5 -0.200000002980232 29
endloop
endfacet
facet normal 0 -1 0
outer loop
vertex 15 -0.200000002980232 27.3999996185303
vertex 19.5 -0.200000002980232 29
vertex 15 -0.200000002980232 29
endloop
endfacet
facet normal 1 0 0
outer loop
vertex 19.5 -0.200000002980232 27.3999996185303
vertex 19.5 26.3999996185303 27.3999996185303
vertex 19.5 26.3999996185303 29
endloop
endfacet
facet normal 1 0 0
outer loop
vertex 19.5 -0.200000002980232 27.3999996185303
vertex 19.5 26.3999996185303 29
vertex 19.5 -0.200000002980232 29
endloop
endfacet
facet normal 0 1 0
outer loop
vertex 19.5 26.3999996185303 27.3999996185303
vertex 15 26.3999996185303 27.3999996185303
vertex 15 26.3999996185303 29
endloop
endfacet
facet normal 0 1 0
outer loop
vertex 19.5 26.3999996185303 27.3999996185303
vertex 15 26.3999996185303 29
vertex 19.5 26.3999996185303 29
endloop
endfacet
facet normal -1 0 0
outer loop
vertex 15 26.3999996185303 27.3999996185303
vertex 15 -0.200000002980232 27.3999996185303
vertex 15 -0.200000002980232 29
endloop
endfacet
facet normal -1 0 0
outer loop
vertex 15 26.3999996185303 27.3999996185303
vertex 15 -0.200000002980232 29
vertex 15 26.3999996185303 29
endloop
endfacet
facet normal 0 0 1
outer loop
vertex 15 -0.200000002980232 29
vertex 19.5 -0.200000002980232 29
vertex 19.5 26.3999996185303 29
endloop
endfacet
facet normal 0 0 1
outer loop
vertex 15 -0.200000002980232 29
vertex 19.5 26.3999996185303 29
vertex 15 26.3999996185303 29
endloop
endfacet
endsolid
solid 16
facet normal 0 0 -1
outer loop
vertex 20 26.3999996185303 27.3999996185303
vertex 24.5 26.3999996185303 27.3999996185303
vertex 24.5 -0.200000002980232 27.3999996185303
endloop
endfacet
facet normal 0 0 -1
outer loop
vertex 20 26.3999996185303 27.3999996185303
vertex 24.5 -0.200000002980232 27.3999996185303
vertex 20 -0.200000002980232 27.3999996185303
endloop
endfacet
facet normal 0 -1 0
outer loop
vertex 20 -0.200000002980232 27.3999996185303
vertex 24.5 -0.200000002980232 27.3999996185303
vertex 24.5 -0.200000002980232 29
endloop
endfacet
facet normal 0 -1 0
outer loop
vertex 20 -0.200000002980232 27.3999996185303
vertex 24.5 -0.200000002980232 29
vertex 20 -0.200000002980232 29
endloop
endfacet
facet normal 1 0 0
outer loop
vertex 24.5 -0.200000002980232 27.3999996185303
vertex 24.5 26.3999996185303 27.3999996185303
vertex 24.5 26.3999996185303 29
endloop
endfacet
facet normal 1 0 0
outer loop
vertex 24.5 -0.200000002980232 27.3999996185303
vertex 24.5 26.3999996185303 29
vertex 24.5 -0.200000002980232 29
endloop
endfacet
facet normal 0 1 0
outer loop
vertex 24.5 26.3999996185303 27.3999996185303
vertex 20 26.3999996185303 27.3999996185303
vertex 20 26.3999996185303 29
endloop
endfacet
facet normal 0 1 0
outer loop
vertex 24.5 26.3999996185303 27.3999996185303
vertex 20 26.3999996185303 29
vertex 24.5 26.3999996185303 29
endloop
endfacet
facet normal -1 0 0
outer loop
vertex 20 26.3999996185303 27.3999996185303
vertex 20 -0.200000002980232 27.3999996185303
vertex 20 -0.200000002980232 29
endloop
endfacet
facet normal -1 0 0
outer loop
vertex 20 26.3999996185303 27.3999996185303
vertex 20 -0.200000002980232 29
vertex 20 26.3999996185303 29
endloop
endfacet
facet normal 0 0 1
outer loop
vertex 20 -0.200000002980232 29
vertex 24.5 -0.200000002980232 29
vertex 24.5 26.3999996185303 29
endloop
endfacet
facet normal 0 0 1
outer loop
vertex 20 -0.200000002980232 29
vertex 24.5 26.3999996185303 29
vertex 20 26.3999996185303 29
endloop
endfacet
endsolid
solid 18
facet normal 0 0 -1
outer loop
vertex 25 26.3999996185303 27.3999996185303
vertex 29.5 26.3999996185303 27.3999996185303
vertex 29.5 -0.200000002980232 27.3999996185303
endloop
endfacet
facet normal 0 0 -1
outer loop
vertex 25 26.3999996185303 27.3999996185303
vertex 29.5 -0.200000002980232 27.3999996185303
vertex 25 -0.200000002980232 27.3999996185303
endloop
endfacet
facet normal 0 -1 0
outer loop
vertex 25 -0.200000002980232 27.3999996185303
vertex 29.5 -0.200000002980232 27.3999996185303
vertex 29.5 -0.200000002980232 29
endloop
endfacet
facet normal 0 -1 0
outer loop
vertex 25 -0.200000002980232 27.3999996185303
vertex 29.5 -0.200000002980232 29
vertex 25 -0.200000002980232 29
endloop
endfacet
facet normal 1 0 0
outer loop
vertex 29.5 -0.200000002980232 27.3999996185303
vertex 29.5 26.3999996185303 27.3999996185303
vertex 29.5 26.3999996185303 29
endloop
endfacet
facet normal 1 0 0
outer loop
vertex 29.5 -0.200000002980232 27.3999996185303
vertex 29.5 26.3999996185303 29
vertex 29.5 -0.200000002980232 29
endloop
endfacet
facet normal 0 1 0
outer loop
vertex 29.5 26.3999996185303 27.3999996185303
vertex 25 26.3999996185303 27.3999996185303
vertex 25 26.3999996185303 29
endloop
endfacet
facet normal 0 1 0
outer loop
vertex 29.5 26.3999996185303 27.3999996185303
vertex 25 26.3999996185303 29
vertex 29.5 26.3999996185303 29
endloop
endfacet
facet normal -1 0 0
outer loop
vertex 25 26.3999996185303 27.3999996185303
vertex 25 -0.200000002980232 27.3999996185303
vertex 25 -0.200000002980232 29
endloop
endfacet
facet normal -1 0 0
outer loop
vertex 25 26.3999996185303 27.3999996185303
vertex 25 -0.200000002980232 29
vertex 25 26.3999996185303 29
endloop
endfacet
facet normal 0 0 1
outer loop
vertex 25 -0.200000002980232 29
vertex 29.5 -0.200000002980232 29
vertex 29.5 26.3999996185303 29
endloop
endfacet
facet normal 0 0 1
outer loop
vertex 25 -0.200000002980232 29
vertex 29.5 26.3999996185303 29
vertex 25 26.3999996185303 29
endloop
endfacet
endsolid
solid 20
facet normal 0 0 -1
outer loop
vertex 3 2.70000004768372 22.3999996185303
vertex 26 2.70000004768372 22.3999996185303
vertex 26 0.300000011920929 22.3999996185303
endloop
endfacet
facet normal 0 0 -1
outer loop
vertex 3 2.70000004768372 22.3999996185303
vertex 26 0.300000011920929 22.3999996185303
vertex 3 0.300000011920929 22.3999996185303
endloop
endfacet
facet normal 0 -1 0
outer loop
vertex 3 0.300000011920929 22.3999996185303
vertex 26 0.300000011920929 22.3999996185303
vertex 26 0.300000011920929 27.3999996185303
endloop
endfacet
facet normal 0 -1 0
outer loop
vertex 3 0.300000011920929 22.3999996185303
vertex 26 0.300000011920929 27.3999996185303
vertex 3 0.300000011920929 27.3999996185303
endloop
endfacet
facet normal 1 0 0
outer loop
vertex 26 0.300000011920929 22.3999996185303
vertex 26 2.70000004768372 22.3999996185303
vertex 26 2.70000004768372 27.3999996185303
endloop
endfacet
facet normal 1 0 0
outer loop
vertex 26 0.300000011920929 22.3999996185303
vertex 26 2.70000004768372 27.3999996185303
vertex 26 0.300000011920929 27.3999996185303
endloop
endfacet
facet normal 0 1 0
outer loop
vertex 26 2.70000004768372 22.3999996185303
vertex 3 2.70000004768372 22.3999996185303
vertex 3 2.70000004768372 27.3999996185303
endloop
endfacet
facet normal 0 1 0
outer loop
vertex 26 2.70000004768372 22.3999996185303
vertex 3 2.70000004768372 27.3999996185303
vertex 26 2.70000004768372 27.3999996185303
endloop
endfacet
facet normal -1 0 0
outer loop
vertex 3 2.70000004768372 22.3999996185303
vertex 3 0.300000011920929 22.3999996185303
vertex 3 0.300000011920929 27.3999996185303
endloop
endfacet
facet normal -1 0 0
outer loop
vertex 3 2.70000004768372 22.3999996185303
vertex 3 0.300000011920929 27.3999996185303
vertex 3 2.70000004768372 27.3999996185303
endloop
endfacet
facet normal 0 0 1
outer loop
vertex 3 0.300000011920929 27.3999996185303
vertex 26 0.300000011920929 27.3999996185303
vertex 26 2.70000004768372 27.3999996185303
endloop
endfacet
facet normal 0 0 1
outer loop
vertex 3 0.300000011920929 27.3999996185303
vertex 26 2.70000004768372 27.3999996185303
vertex 3 2.70000004768372 27.3999996185303
endloop
endfacet
endsolid
solid 22
facet normal 0 0 -1
outer loop
vertex 3 25.7000007629395 22.3999996185303
vertex 26 25.7000007629395 22.3999996185303
vertex 26 23.2999992370605 22.3999996185303
endloop
endfacet
facet normal 0 0 -1
outer loop
vertex 3 25.7000007629395 22.3999996185303
vertex 26 23.2999992370605 22.3999996185303
vertex 3 23.2999992370605 22.3999996185303
endloop
endfacet
facet normal 0 -1 0
outer loop
vertex 3 23.2999992370605 22.3999996185303
vertex 26 23.2999992370605 22.3999996185303
vertex 26 23.2999992370605 27.3999996185303
endloop
endfacet
facet normal 0 -1 0
outer loop
vertex 3 23.2999992370605 22.3999996185303
vertex 26 23.2999992370605 27.3999996185303
vertex 3 23.2999992370605 27.3999996185303
endloop
endfacet
facet normal 1 0 0
outer loop
vertex 26 23.2999992370605 22.3999996185303
vertex 26 25.7000007629395 22.3999996185303
vertex 26 25.7000007629395 27.3999996185303
endloop
endfacet
facet normal 1 0 0
outer loop
vertex 26 23.2999992370605 22.3999996185303
vertex 26 25.7000007629395 27.3999996185303
vertex 26 23.2999992370605 27.3999996185303
endloop
endfacet
facet normal 0 1 0
outer loop
vertex 26 25.7000007629395 22.3999996185303
vertex 3 25.7000007629395 22.3999996185303
vertex 3 25.7000007629395 27.3999996185303
endloop
endfacet
facet normal 0 1 0
outer loop
vertex 26 25.7000007629395 22.3999996185303
vertex 3 25.7000007629395 27.3999996185303
vertex 26 25.7000007629395 27.3999996185303
endloop
endfacet
facet normal -1 0 0
outer loop
vertex 3 25.7000007629395 22.3999996185303
vertex 3 23.2999992370605 22.3999996185303
vertex 3 23.2999992370605 27.3999996185303
endloop
endfacet
facet normal -1 0 0
outer loop
vertex 3 25.7000007629395 22.3999996185303
vertex 3 23.2999992370605 27.3999996185303
vertex 3 25.7000007629395 27.3999996185303
endloop
endfacet
facet normal 0 0 1
outer loop
vertex 3 23.2999992370605 27.3999996185303
vertex 26 23.2999992370605 27.3999996185303
vertex 26 25.7000007629395 27.3999996185303
endloop
endfacet
facet normal 0 0 1
outer loop
vertex 3 23.2999992370605 27.3999996185303
vertex 26 25.7000007629395 27.3999996185303
vertex 3 25.7000007629395 27.3999996185303
endloop
endfacet
endsolid
solid 24
facet normal 0 0 -1
outer loop
vertex 26.2999992370605 23 22.3999996185303
vertex 28.7000007629395 23 22.3999996185303
vertex 28.7000007629395 3 22.3999996185303
endloop
endfacet
facet normal 0 0 -1
outer loop
vertex 26.2999992370605 23 22.3999996185303
vertex 28.7000007629395 3 22.3999996185303
vertex 26.2999992370605 3 22.3999996185303
endloop
endfacet
facet normal 0 -1 0
outer loop
vertex 26.2999992370605 3 22.3999996185303
vertex 28.7000007629395 3 22.3999996185303
vertex 28.7000007629395 3 27.3999996185303
endloop
endfacet
facet normal 0 -1 0
outer loop
vertex 26.2999992370605 3 22.3999996185303
vertex 28.7000007629395 3 27.3999996185303
vertex 26.2999992370605 3 27.3999996185303
endloop
endfacet
facet normal 1 0 0
outer loop
vertex 28.7000007629395 3 22.3999996185303
vertex 28.7000007629395 23 22.3999996185303
vertex 28.7000007629395 23 27.3999996185303
endloop
endfacet
facet normal 1 0 0
outer loop
vertex 28.7000007629395 3 22.3999996185303
vertex 28.7000007629395 23 27.3999996185303
vertex 28.7000007629395 3 27.3999996185303
endloop
endfacet
facet normal 0 1 0
outer loop
vertex 28.7000007629395 23 22.3999996185303
vertex 26.2999992370605 23 22.3999996185303
vertex 26.2999992370605 23 27.3999996185303
endloop
endfacet
facet normal 0 1 0
outer loop
vertex 28.7000007629395 23 22.3999996185303
vertex 26.2999992370605 23 27.3999996185303
vertex 28.7000007629395 23 27.3999996185303
endloop
endfacet
facet normal -1 0 0
outer loop
vertex 26.2999992370605 23 22.3999996185303
vertex 26.2999992370605 3 22.3999996185303
vertex 26.2999992370605 3 27.3999996185303
endloop
endfacet
facet normal -1 0 0
outer loop
vertex 26.2999992370605 23 22.3999996185303
vertex 26.2999992370605 3 27.3999996185303
vertex 26.2999992370605 23 27.3999996185303
endloop
endfacet
facet normal 0 0 1
outer loop
vertex 26.2999992370605 3 27.3999996185303
vertex 28.7000007629395 3 27.3999996185303
vertex 28.7000007629395 23 27.3999996185303
endloop
endfacet
facet normal 0 0 1
outer loop
vertex 26.2999992370605 3 27.3999996185303
vertex 28.7000007629395 23 27.3999996185303
vertex 26.2999992370605 23 27.3999996185303
endloop
endfacet
endsolid
solid 26
facet normal 0 0 -1
outer loop
vertex 0.300000011920929 23 22.3999996185303
vertex 2.70000004768372 23 22.3999996185303
vertex 2.70000004768372 3 22.3999996185303
endloop
endfacet
facet normal 0 0 -1
outer loop
vertex 0.300000011920929 23 22.3999996185303
vertex 2.70000004768372 3 22.3999996185303
vertex 0.300000011920929 3 22.3999996185303
endloop
endfacet
facet normal 0 -1 0
outer loop
vertex 0.300000011920929 3 22.3999996185303
vertex 2.70000004768372 3 22.3999996185303
vertex 2.70000004768372 3 27.3999996185303
endloop
endfacet
facet normal 0 -1 0
outer loop
vertex 0.300000011920929 3 22.3999996185303
vertex 2.70000004768372 3 27.3999996185303
vertex 0.300000011920929 3 27.3999996185303
endloop
endfacet
facet normal 1 0 0
outer loop
vertex 2.70000004768372 3 22.3999996185303
vertex 2.70000004768372 23 22.3999996185303
vertex 2.70000004768372 23 27.3999996185303
endloop
endfacet
facet normal 1 0 0
outer loop
vertex 2.70000004768372 3 22.3999996185303
vertex 2.70000004768372 23 27.3999996185303
vertex 2.70000004768372 3 27.3999996185303
endloop
endfacet
facet normal 0 1 0
outer loop
vertex 2.70000004768372 23 22.3999996185303
vertex 0.300000011920929 23 22.3999996185303
vertex 0.300000011920929 23 27.3999996185303
endloop
endfacet
facet normal 0 1 0
outer loop
vertex 2.70000004768372 23 22.3999996185303
vertex 0.300000011920929 23 27.3999996185303
vertex 2.70000004768372 23 27.3999996185303
endloop
endfacet
facet normal -1 0 0
outer loop
vertex 0.300000011920929 23 22.3999996185303
vertex 0.300000011920929 3 22.3999996185303
vertex 0.300000011920929 3 27.3999996185303
endloop
endfacet
facet normal -1 0 0
outer loop
vertex 0.300000011920929 23 22.3999996185303
vertex 0.300000011920929 3 27.3999996185303
vertex 0.300000011920929 23 27.3999996185303
endloop
endfacet
facet normal 0 0 1
outer loop
vertex 0.300000011920929 3 27.3999996185303
vertex 2.70000004768372 3 27.3999996185303
vertex 2.70000004768372 23 27.3999996185303
endloop
endfacet
facet normal 0 0 1
outer loop
vertex 0.300000011920929 3 27.3999996185303
vertex 2.70000004768372 23 27.3999996185303
vertex 0.300000011920929 23 27.3999996185303
endloop
endfacet
endsolid
solid 28
facet normal 0 0.195090115576226 -0.980785321466658
outer loop
vertex 3 1.5 13.5
vertex 3 1.88268339633942 13.5761203765869
vertex 26 1.88268339633942 13.5761203765869
endloop
endfacet
facet normal -1 0 0
outer loop
vertex 3 1.5 14.5
vertex 3 1.88268339633942 13.5761203765869
vertex 3 1.5 13.5
endloop
endfacet
facet normal 0 0.555570633466803 -0.831469344732141
outer loop
vertex 3 1.88268339633942 13.5761203765869
vertex 3 2.20710682868958 13.792893409729
vertex 26 2.20710682868958 13.792893409729
endloop
endfacet
facet normal -1 0 0
outer loop
vertex 3 1.5 14.5
vertex 3 2.20710682868958 13.792893409729
vertex 3 1.88268339633942 13.5761203765869
endloop
endfacet
facet normal 0 0.831469155486548 -0.555570916692447
outer loop
vertex 3 2.20710682868958 13.792893409729
vertex 3 2.42387962341309 14.1173162460327
vertex 26 2.42387962341309 14.1173162460327
endloop
endfacet
facet normal -1 0 0
outer loop
vertex 3 1.5 14.5
vertex 3 2.42387962341309 14.1173162460327
vertex 3 2.20710682868958 13.792893409729
endloop
endfacet
facet normal 0 0.98078535635141 -0.19508994019846
outer loop
vertex 3 2.42387962341309 14.1173162460327
vertex 3 2.5 14.5
vertex 26 2.5 14.5
endloop
endfacet
facet normal -1 0 0
outer loop
vertex 3 1.5 14.5
vertex 3 2.5 14.5
vertex 3 2.42387962341309 14.1173162460327
endloop
endfacet
facet normal 0 0.98078535635141 0.19508994019846
outer loop
vertex 3 2.5 14.5
vertex 3 2.42387962341309 14.8826837539673
vertex 26 2.42387962341309 14.8826837539673
endloop
endfacet
facet normal -1 0 0
outer loop
vertex 3 1.5 14.5
vertex 3 2.42387962341309 14.8826837539673
vertex 3 2.5 14.5
endloop
endfacet
facet normal 0 0.831469155486548 0.555570916692447
outer loop
vertex 3 2.42387962341309 14.8826837539673
vertex 3 2.20710682868958 15.207106590271
vertex 26 2.20710682868958 15.207106590271
endloop
endfacet
facet normal -1 0 0
outer loop
vertex 3 1.5 14.5
vertex 3 2.20710682868958 15.207106590271
vertex 3 2.42387962341309 14.8826837539673
endloop
endfacet
facet normal 0 0.555570633466803 0.831469344732141
outer loop
vertex 3 2.20710682868958 15.207106590271
vertex 3 1.88268339633942 15.4238796234131
vertex 26 1.88268339633942 15.4238796234131
endloop
endfacet
facet normal -1 0 0
outer loop
vertex 3 1.5 14.5
vertex 3 1.88268339633942 15.4238796234131
vertex 3 2.20710682868958 15.207106590271
endloop
endfacet
facet normal 0 0.195090115576226 0.980785321466658
outer loop
vertex 3 1.88268339633942 15.4238796234131
vertex 3 1.5 15.5
vertex 26 1.5 15.5
endloop
endfacet
facet normal -1 0 0
outer loop
vertex 3 1.5 14.5
vertex 3 1.5 15.5
vertex 3 1.88268339633942 15.4238796234131
endloop
endfacet
facet normal 0 -0.195090115576226 0.980785321466658
outer loop
vertex 3 1.5 15.5
vertex 3 1.11731660366058 15.4238796234131
vertex 26 1.11731660366058 15.4238796234131
endloop
endfacet
facet normal -1 0 0
outer loop
vertex 3 1.5 14.5
vertex 3 1.11731660366058 15.4238796234131
vertex 3 1.5 15.5
endloop
endfacet
facet normal 0 -0.555570704033485 0.831469297580938
outer loop
vertex 3 1.11731660366058 15.4238796234131
vertex 3 0.79289323091507 15.207106590271
vertex 26 0.79289323091507 15.207106590271
endloop
endfacet
facet normal -1 0 0
outer loop
vertex 3 1.5 14.5
vertex 3 0.79289323091507 15.207106590271
vertex 3 1.11731660366058 15.4238796234131
endloop
endfacet
facet normal 0 -0.831469226053356 0.555570811081929
outer loop
vertex 3 0.79289323091507 15.207106590271
vertex 3 0.576120495796204 14.8826837539673
vertex 26 0.576120495796204 14.8826837539673
endloop
endfacet
facet normal -1 0 0
outer loop
vertex 3 1.5 14.5
vertex 3 0.576120495796204 14.8826837539673
vertex 3 0.79289323091507 15.207106590271
endloop
endfacet
facet normal 0 -0.980785297892165 0.195090234093296
outer loop
vertex 3 0.576120495796204 14.8826837539673
vertex 3 0.5 14.5
vertex 26 0.5 14.5
endloop
endfacet
facet normal -1 0 0
outer loop
vertex 3 1.5 14.5
vertex 3 0.5 14.5
vertex 3 0.576120495796204 14.8826837539673
endloop
endfacet
facet normal 0 -0.980785297892165 -0.195090234093296
outer loop
vertex 3 0.5 14.5
vertex 3 0.576120495796204 14.1173162460327
vertex 26 0.576120495796204 14.1173162460327
endloop
endfacet
facet normal -1 0 0
outer loop
vertex 3 1.5 14.5
vertex 3 0.576120495796204 14.1173162460327
vertex 3 0.5 14.5
endloop
endfacet
facet normal 0 -0.831469226053356 -0.555570811081929
outer loop
vertex 3 0.576120495796204 14.1173162460327
vertex 3 0.79289323091507 13.792893409729
vertex 26 0.79289323091507 13.792893409729
endloop
endfacet
facet normal -1 0 0
outer loop
vertex 3 1.5 14.5
vertex 3 0.79289323091507 13.792893409729
vertex 3 0.576120495796204 14.1173162460327
endloop
endfacet
facet normal 0 -0.555570704033485 -0.831469297580938
outer loop
vertex 3 0.79289323091507 13.792893409729
vertex 3 1.11731660366058 13.5761203765869
vertex 26 1.11731660366058 13.5761203765869
endloop
endfacet
facet normal -1 0 0
outer loop
vertex 3 1.5 14.5
vertex 3 1.11731660366058 13.5761203765869
vertex 3 0.79289323091507 13.792893409729
endloop
endfacet
facet normal 0 -0.195090115576226 -0.980785321466658
outer loop
vertex 3 1.11731660366058 13.5761203765869
vertex 3 1.5 13.5
vertex 26 1.5 13.5
endloop
endfacet
facet normal -1 0 0
outer loop
vertex 3 1.5 14.5
vertex 3 1.5 13.5
vertex 3 1.11731660366058 13.5761203765869
endloop
endfacet
facet normal 0 0.195090115576226 -0.980785321466658
outer loop
vertex 3 1.5 13.5
vertex 26 1.88268339633942 13.5761203765869
vertex 26 1.5 13.5
endloop
endfacet
facet normal 1 0 0
outer loop
vertex 26 1.5 14.5
vertex 26 1.5 13.5
vertex 26 1.88268339633942 13.5761203765869
endloop
endfacet
facet normal 0 0.555570633466803 -0.831469344732141
outer loop
vertex 3 1.88268339633942 13.5761203765869
vertex 26 2.20710682868958 13.792893409729
vertex 26 1.88268339633942 13.5761203765869
endloop
endfacet
facet normal 1 0 0
outer loop
vertex 26 1.5 14.5
vertex 26 1.88268339633942 13.5761203765869
vertex 26 2.20710682868958 13.792893409729
endloop
endfacet
facet normal 0 0.831469155486548 -0.555570916692447
outer loop
vertex 3 2.20710682868958 13.792893409729
vertex 26 2.42387962341309 14.1173162460327
vertex 26 2.20710682868958 13.792893409729
endloop
endfacet
facet normal 1 0 0
outer loop
vertex 26 1.5 14.5
vertex 26 2.20710682868958 13.792893409729
vertex 26 2.42387962341309 14.1173162460327
endloop
endfacet
facet normal 0 0.98078535635141 -0.19508994019846
outer loop
vertex 3 2.42387962341309 14.1173162460327
vertex 26 2.5 14.5
vertex 26 2.42387962341309 14.1173162460327
endloop
endfacet
facet normal 1 0 0
outer loop
vertex 26 1.5 14.5
vertex 26 2.42387962341309 14.1173162460327
vertex 26 2.5 14.5
endloop
endfacet
facet normal 0 0.98078535635141 0.19508994019846
outer loop
vertex 3 2.5 14.5
vertex 26 2.42387962341309 14.8826837539673
vertex 26 2.5 14.5
endloop
endfacet
facet normal 1 0 0
outer loop
vertex 26 1.5 14.5
vertex 26 2.5 14.5
vertex 26 2.42387962341309 14.8826837539673
endloop
endfacet
facet normal 0 0.831469155486548 0.555570916692447
outer loop
vertex 3 2.42387962341309 14.8826837539673
vertex 26 2.20710682868958 15.207106590271
vertex 26 2.42387962341309 14.8826837539673
endloop
endfacet
facet normal 1 0 0
outer loop
vertex 26 1.5 14.5
vertex 26 2.42387962341309 14.8826837539673
vertex 26 2.20710682868958 15.207106590271
endloop
endfacet
facet normal 0 0.555570633466803 0.831469344732141
outer loop
vertex 3 2.20710682868958 15.207106590271
vertex 26 1.88268339633942 15.4238796234131
vertex 26 2.20710682868958 15.207106590271
endloop
endfacet
facet normal 1 0 0
outer loop
vertex 26 1.5 14.5
vertex 26 2.20710682868958 15.207106590271
vertex 26 1.88268339633942 15.4238796234131
endloop
endfacet
facet normal 0 0.195090115576226 0.980785321466658
outer loop
vertex 3 1.88268339633942 15.4238796234131
vertex 26 1.5 15.5
vertex 26 1.88268339633942 15.4238796234131
endloop
endfacet
facet normal 1 0 0
outer loop
vertex 26 1.5 14.5
vertex 26 1.88268339633942 15.4238796234131
vertex 26 1.5 15.5
endloop
endfacet
facet normal 0 -0.195090115576226 0.980785321466658
outer loop
vertex 3 1.5 15.5
vertex 26 1.11731660366058 15.4238796234131
vertex 26 1.5 15.5
endloop
endfacet
facet normal 1 0 0
outer loop
vertex 26 1.5 14.5
vertex 26 1.5 15.5
vertex 26 1.11731660366058 15.4238796234131
endloop
endfacet
facet normal 0 -0.555570704033485 0.831469297580938
outer loop
vertex 3 1.11731660366058 15.4238796234131
vertex 26 0.79289323091507 15.207106590271
vertex 26 1.11731660366058 15.4238796234131
endloop
endfacet
facet normal 1 0 0
outer loop
vertex 26 1.5 14.5
vertex 26 1.11731660366058 15.4238796234131
vertex 26 0.79289323091507 15.207106590271
endloop
endfacet
facet normal 0 -0.831469226053356 0.555570811081929
outer loop
vertex 3 0.79289323091507 15.207106590271
vertex 26 0.576120495796204 14.8826837539673
vertex 26 0.79289323091507 15.207106590271
endloop
endfacet
facet normal 1 0 0
outer loop
vertex 26 1.5 14.5
vertex 26 0.79289323091507 15.207106590271
vertex 26 0.576120495796204 14.8826837539673
endloop
endfacet
facet normal 0 -0.980785297892165 0.195090234093296
outer loop
vertex 3 0.576120495796204 14.8826837539673
vertex 26 0.5 14.5
vertex 26 0.576120495796204 14.8826837539673
endloop
endfacet
facet normal 1 0 0
outer loop
vertex 26 1.5 14.5
vertex 26 0.576120495796204 14.8826837539673
vertex 26 0.5 14.5
endloop
endfacet
facet normal 0 -0.980785297892165 -0.195090234093296
outer loop
vertex 3 0.5 14.5
vertex 26 0.576120495796204 14.1173162460327
vertex 26 0.5 14.5
endloop
endfacet
facet normal 1 0 0
outer loop
vertex 26 1.5 14.5
vertex 26 0.5 14.5
vertex 26 0.576120495796204 14.1173162460327
endloop
endfacet
facet normal 0 -0.831469226053356 -0.555570811081929
outer loop
vertex 3 0.576120495796204 14.1173162460327
vertex 26 0.79289323091507 13.792893409729
vertex 26 0.576120495796204 14.1173162460327
endloop
endfacet
facet normal 1 0 0
outer loop
vertex 26 1.5 14.5
vertex 26 0.576120495796204 14.1173162460327
vertex 26 0.79289323091507 13.792893409729
endloop
endfacet
facet normal 0 -0.555570704033485 -0.831469297580938
outer loop
vertex 3 0.79289323091507 13.792893409729
vertex 26 1.11731660366058 13.5761203765869
vertex 26 0.79289323091507 13.792893409729
endloop
endfacet
facet normal 1 0 0
outer loop
vertex 26 1.5 14.5
vertex 26 0.79289323091507 13.792893409729
vertex 26 1.11731660366058 13.5761203765869
endloop
endfacet
facet normal 0 -0.195090115576226 -0.980785321466658
outer loop
vertex 3 1.11731660366058 13.5761203765869
vertex 26 1.5 13.5
vertex 26 1.11731660366058 13.5761203765869
endloop
endfacet
facet normal 1 0 0
outer loop
vertex 26 1.5 14.5
vertex 26 1.11731660366058 13.5761203765869
vertex 26 1.5 13.5
endloop
endfacet
endsolid
solid 30
facet normal 0 0.195090407873189 -0.980785263325195
outer loop
vertex 3 24.5 13.5
vertex 3 24.882682800293 13.5761203765869
vertex 26 24.882682800293 13.5761203765869
endloop
endfacet
facet normal -1 0 0
outer loop
vertex 3 24.5 14.5
vertex 3 24.882682800293 13.5761203765869
vertex 3 24.5 13.5
endloop
endfacet
facet normal 0 0.555569081003322 -0.83147038205406
outer loop
vertex 3 24.882682800293 13.5761203765869
vertex 3 25.2071075439453 13.792893409729
vertex 26 25.2071075439453 13.792893409729
endloop
endfacet
facet normal -1 0 0
outer loop
vertex 3 24.5 14.5
vertex 3 25.2071075439453 13.792893409729
vertex 3 24.882682800293 13.5761203765869
endloop
endfacet
facet normal 0 0.831470002288147 -0.555569649364459
outer loop
vertex 3 25.2071075439453 13.792893409729
vertex 3 25.4238796234131 14.1173162460327
vertex 26 25.4238796234131 14.1173162460327
endloop
endfacet
facet normal -1 0 0
outer loop
vertex 3 24.5 14.5
vertex 3 25.4238796234131 14.1173162460327
vertex 3 25.2071075439453 13.792893409729
endloop
endfacet
facet normal 0 0.98078535635141 -0.19508994019846
outer loop
vertex 3 25.4238796234131 14.1173162460327
vertex 3 25.5 14.5
vertex 26 25.5 14.5
endloop
endfacet
facet normal -1 0 0
outer loop
vertex 3 24.5 14.5
vertex 3 25.5 14.5
vertex 3 25.4238796234131 14.1173162460327
endloop
endfacet
facet normal 0 0.98078535635141 0.19508994019846
outer loop
vertex 3 25.5 14.5
vertex 3 25.4238796234131 14.8826837539673
vertex 26 25.4238796234131 14.8826837539673
endloop
endfacet
facet normal -1 0 0
outer loop
vertex 3 24.5 14.5
vertex 3 25.4238796234131 14.8826837539673
vertex 3 25.5 14.5
endloop
endfacet
facet normal 0 0.831470002288147 0.555569649364459
outer loop
vertex 3 25.4238796234131 14.8826837539673
vertex 3 25.2071075439453 15.207106590271
vertex 26 25.2071075439453 15.207106590271
endloop
endfacet
facet normal -1 0 0
outer loop
vertex 3 24.5 14.5
vertex 3 25.2071075439453 15.207106590271
vertex 3 25.4238796234131 14.8826837539673
endloop
endfacet
facet normal 0 0.555569081003322 0.83147038205406
outer loop
vertex 3 25.2071075439453 15.207106590271
vertex 3 24.882682800293 15.4238796234131
vertex 26 24.882682800293 15.4238796234131
endloop
endfacet
facet normal -1 0 0
outer loop
vertex 3 24.5 14.5
vertex 3 24.882682800293 15.4238796234131
vertex 3 25.2071075439453 15.207106590271
endloop
endfacet
facet normal 0 0.195090407873189 0.980785263325195
outer loop
vertex 3 24.882682800293 15.4238796234131
vertex 3 24.5 15.5
vertex 26 24.5 15.5
endloop
endfacet
facet normal -1 0 0
outer loop
vertex 3 24.5 14.5
vertex 3 24.5 15.5
vertex 3 24.882682800293 15.4238796234131
endloop
endfacet
facet normal 0 -0.195090407873189 0.980785263325195
outer loop
vertex 3 24.5 15.5
vertex 3 24.117317199707 15.4238796234131
vertex 26 24.117317199707 15.4238796234131
endloop
endfacet
facet normal -1 0 0
outer loop
vertex 3 24.5 14.5
vertex 3 24.117317199707 15.4238796234131
vertex 3 24.5 15.5
endloop
endfacet
facet normal 0 -0.555569081003322 0.83147038205406
outer loop
vertex 3 24.117317199707 15.4238796234131
vertex 3 23.7928924560547 15.207106590271
vertex 26 23.7928924560547 15.207106590271
endloop
endfacet
facet normal -1 0 0
outer loop
vertex 3 24.5 14.5
vertex 3 23.7928924560547 15.207106590271
vertex 3 24.117317199707 15.4238796234131
endloop
endfacet
facet normal 0 -0.831470002288147 0.555569649364459
outer loop
vertex 3 23.7928924560547 15.207106590271
vertex 3 23.5761203765869 14.8826837539673
vertex 26 23.5761203765869 14.8826837539673
endloop
endfacet
facet normal -1 0 0
outer loop
vertex 3 24.5 14.5
vertex 3 23.5761203765869 14.8826837539673
vertex 3 23.7928924560547 15.207106590271
endloop
endfacet
facet normal 0 -0.98078535635141 0.19508994019846
outer loop
vertex 3 23.5761203765869 14.8826837539673
vertex 3 23.5 14.5
vertex 26 23.5 14.5
endloop
endfacet
facet normal -1 0 0
outer loop
vertex 3 24.5 14.5
vertex 3 23.5 14.5
vertex 3 23.5761203765869 14.8826837539673
endloop
endfacet
facet normal 0 -0.98078535635141 -0.19508994019846
outer loop
vertex 3 23.5 14.5
vertex 3 23.5761203765869 14.1173162460327
vertex 26 23.5761203765869 14.1173162460327
endloop
endfacet
facet normal -1 0 0
outer loop
vertex 3 24.5 14.5
vertex 3 23.5761203765869 14.1173162460327
vertex 3 23.5 14.5
endloop
endfacet
facet normal 0 -0.831470002288147 -0.555569649364459
outer loop
vertex 3 23.5761203765869 14.1173162460327
vertex 3 23.7928924560547 13.792893409729
vertex 26 23.7928924560547 13.792893409729
endloop
endfacet
facet normal -1 0 0
outer loop
vertex 3 24.5 14.5
vertex 3 23.7928924560547 13.792893409729
vertex 3 23.5761203765869 14.1173162460327
endloop
endfacet
facet normal 0 -0.555569081003322 -0.83147038205406
outer loop
vertex 3 23.7928924560547 13.792893409729
vertex 3 24.117317199707 13.5761203765869
vertex 26 24.117317199707 13.5761203765869
endloop
endfacet
facet normal -1 0 0
outer loop
vertex 3 24.5 14.5
vertex 3 24.117317199707 13.5761203765869
vertex 3 23.7928924560547 13.792893409729
endloop
endfacet
facet normal 0 -0.195090407873189 -0.980785263325195
outer loop
vertex 3 24.117317199707 13.5761203765869
vertex 3 24.5 13.5
vertex 26 24.5 13.5
endloop
endfacet
facet normal -1 0 0
outer loop
vertex 3 24.5 14.5
vertex 3 24.5 13.5
vertex 3 24.117317199707 13.5761203765869
endloop
endfacet
facet normal 0 0.195090407873189 -0.980785263325195
outer loop
vertex 3 24.5 13.5
vertex 26 24.882682800293 13.5761203765869
vertex 26 24.5 13.5
endloop
endfacet
facet normal 1 0 0
outer loop
vertex 26 24.5 14.5
vertex 26 24.5 13.5
vertex 26 24.882682800293 13.5761203765869
endloop
endfacet
facet normal 0 0.555569081003322 -0.83147038205406
outer loop
vertex 3 24.882682800293 13.5761203765869
vertex 26 25.2071075439453 13.792893409729
vertex 26 24.882682800293 13.5761203765869
endloop
endfacet
facet normal 1 0 0
outer loop
vertex 26 24.5 14.5
vertex 26 24.882682800293 13.5761203765869
vertex 26 25.2071075439453 13.792893409729
endloop
endfacet
facet normal 0 0.831470002288147 -0.555569649364459
outer loop
vertex 3 25.2071075439453 13.792893409729
vertex 26 25.4238796234131 14.1173162460327
vertex 26 25.2071075439453 13.792893409729
endloop
endfacet
facet normal 1 0 0
outer loop
vertex 26 24.5 14.5
vertex 26 25.2071075439453 13.792893409729
vertex 26 25.4238796234131 14.1173162460327
endloop
endfacet
facet normal 0 0.98078535635141 -0.19508994019846
outer loop
vertex 3 25.4238796234131 14.1173162460327
vertex 26 25.5 14.5
vertex 26 25.4238796234131 14.1173162460327
endloop
endfacet
facet normal 1 0 0
outer loop
vertex 26 24.5 14.5
vertex 26 25.4238796234131 14.1173162460327
vertex 26 25.5 14.5
endloop
endfacet
facet normal 0 0.98078535635141 0.19508994019846
outer loop
vertex 3 25.5 14.5
vertex 26 25.4238796234131 14.8826837539673
vertex 26 25.5 14.5
endloop
endfacet
facet normal 1 0 0
outer loop
vertex 26 24.5 14.5
vertex 26 25.5 14.5
vertex 26 25.4238796234131 14.8826837539673
endloop
endfacet
facet normal 0 0.831470002288147 0.555569649364459
outer loop
vertex 3 25.4238796234131 14.8826837539673
vertex 26 25.2071075439453 15.207106590271
vertex 26 25.4238796234131 14.8826837539673
endloop
endfacet
facet normal 1 0 0
outer loop
vertex 26 24.5 14.5
vertex 26 25.4238796234131 14.8826837539673
vertex 26 25.2071075439453 15.207106590271
endloop
endfacet
facet normal 0 0.555569081003322 0.83147038205406
outer loop
vertex 3 25.2071075439453 15.207106590271
vertex 26 24.882682800293 15.4238796234131
vertex 26 25.2071075439453 15.207106590271
endloop
endfacet
facet normal 1 0 0
outer loop
vertex 26 24.5 14.5
vertex 26 25.2071075439453 15.207106590271
vertex 26 24.882682800293 15.4238796234131
endloop
endfacet
facet normal 0 0.195090407873189 0.980785263325195
outer loop
vertex 3 24.882682800293 15.4238796234131
vertex 26 24.5 15.5
vertex 26 24.882682800293 15.4238796234131
endloop
endfacet
facet normal 1 0 0
outer loop
vertex 26 24.5 14.5
vertex 26 24.882682800293 15.4238796234131
vertex 26 24.5 15.5
endloop
endfacet
facet normal 0 -0.195090407873189 0.980785263325195
outer loop
vertex 3 24.5 15.5
vertex 26 24.117317199707 15.4238796234131
vertex 26 24.5 15.5
endloop
endfacet
facet normal 1 0 0
outer loop
vertex 26 24.5 14.5
vertex 26 24.5 15.5
vertex 26 24.117317199707 15.4238796234131
endloop
endfacet
facet normal 0 -0.555569081003322 0.83147038205406
outer loop
vertex 3 24.117317199707 15.4238796234131
vertex 26 23.7928924560547 15.207106590271
vertex 26 24.117317199707 15.4238796234131
endloop
endfacet
facet normal 1 0 0
outer loop
vertex 26 24.5 14.5
vertex 26 24.117317199707 15.4238796234131
vertex 26 23.7928924560547 15.207106590271
endloop
endfacet
facet normal 0 -0.831470002288147 0.555569649364459
outer loop
vertex 3 23.7928924560547 15.207106590271
vertex 26 23.5761203765869 14.8826837539673
vertex 26 23.7928924560547 15.207106590271
endloop
endfacet
facet normal 1 0 0
outer loop
vertex 26 24.5 14.5
vertex 26 23.7928924560547 15.207106590271
vertex 26 23.5761203765869 14.8826837539673
endloop
endfacet
facet normal 0 -0.98078535635141 0.19508994019846
outer loop
vertex 3 23.5761203765869 14.8826837539673
vertex 26 23.5 14.5
vertex 26 23.5761203765869 14.8826837539673
endloop
endfacet
facet normal 1 0 0
outer loop
vertex 26 24.5 14.5
vertex 26 23.5761203765869 14.8826837539673
vertex 26 23.5 14.5
endloop
endfacet
facet normal 0 -0.98078535635141 -0.19508994019846
outer loop
vertex 3 23.5 14.5
vertex 26 23.5761203765869 14.1173162460327
vertex 26 23.5 14.5
endloop
endfacet
facet normal 1 0 0
outer loop
vertex 26 24.5 14.5
vertex 26 23.5 14.5
vertex 26 23.5761203765869 14.1173162460327
endloop
endfacet
facet normal 0 -0.831470002288147 -0.555569649364459
outer loop
vertex 3 23.5761203765869 14.1173162460327
vertex 26 23.7928924560547 13.792893409729
vertex 26 23.5761203765869 14.1173162460327
endloop
endfacet
facet normal 1 0 0
outer loop
vertex 26 24.5 14.5
vertex 26 23.5761203765869 14.1173162460327
vertex 26 23.7928924560547 13.792893409729
endloop
endfacet
facet normal 0 -0.555569081003322 -0.83147038205406
outer loop
vertex 3 23.7928924560547 13.792893409729
vertex 26 24.117317199707 13.5761203765869
vertex 26 23.7928924560547 13.792893409729
endloop
endfacet
facet normal 1 0 0
outer loop
vertex 26 24.5 14.5
vertex 26 23.7928924560547 13.792893409729
vertex 26 24.117317199707 13.5761203765869
endloop
endfacet
facet normal 0 -0.195090407873189 -0.980785263325195
outer loop
vertex 3 24.117317199707 13.5761203765869
vertex 26 24.5 13.5
vertex 26 24.117317199707 13.5761203765869
endloop
endfacet
facet normal 1 0 0
outer loop
vertex 26 24.5 14.5
vertex 26 24.117317199707 13.5761203765869
vertex 26 24.5 13.5
endloop
endfacet
endsolid
solid 32
facet normal 0 0 -1
outer loop
vertex 0.5 23 36
vertex 2.5 23 36
vertex 2.5 3 36
endloop
endfacet
facet normal 0 0 -1
outer loop
vertex 0.5 23 36
vertex 2.5 3 36
vertex 0.5 3 36
endloop
endfacet
facet normal 0 -1 0
outer loop
vertex 0.5 3 36
vertex 2.5 3 36
vertex 2.5 3 40
endloop
endfacet
facet normal 0 -1 0
outer loop
vertex 0.5 3 36
vertex 2.5 3 40
vertex 0.5 3 40
endloop
endfacet
facet normal 1 0 0
outer loop
vertex 2.5 3 36
vertex 2.5 23 36
vertex 2.5 23 40
endloop
endfacet
facet normal 1 0 0
outer loop
vertex 2.5 3 36
vertex 2.5 23 40
vertex 2.5 3 40
endloop
endfacet
facet normal 0 1 0
outer loop
vertex 2.5 23 36
vertex 0.5 23 36
vertex 0.5 23 40
endloop
endfacet
facet normal 0 1 0
outer loop
vertex 2.5 23 36
vertex 0.5 23 40
vertex 2.5 23 40
endloop
endfacet
facet normal -1 0 0
outer loop
vertex 0.5 23 36
vertex 0.5 3 36
vertex 0.5 3 40
endloop
endfacet
facet normal -1 0 0
outer loop
vertex 0.5 23 36
vertex 0.5 3 40
vertex 0.5 23 40
endloop
endfacet
facet normal 0 0 1
outer loop
vertex 0.5 3 40
vertex 2.5 3 40
vertex 2.5 23 40
endloop
endfacet
facet normal 0 0 1
outer loop
vertex 0.5 3 40
vertex 2.5 23 40
vertex 0.5 23 40
endloop
endfacet
endsolid
solid 34
facet normal 0 0 -1
outer loop
vertex 0.5 23 52
vertex 2.5 23 52
vertex 2.5 3 52
endloop
endfacet
facet normal 0 0 -1
outer loop
vertex 0.5 23 52
vertex 2.5 3 52
vertex 0.5 3 52
endloop
endfacet
facet normal 0 -1 0
outer loop
vertex 0.5 3 52
vertex 2.5 3 52
vertex 2.5 3 56
endloop
endfacet
facet normal 0 -1 0
outer loop
vertex 0.5 3 52
vertex 2.5 3 56
vertex 0.5 3 56
endloop
endfacet
facet normal 1 0 0
outer loop
vertex 2.5 3 52
vertex 2.5 23 52
vertex 2.5 23 56
endloop
endfacet
facet normal 1 0 0
outer loop
vertex 2.5 3 52
vertex 2.5 23 56
vertex 2.5 3 56
endloop
endfacet
facet normal 0 1 0
outer loop
vertex 2.5 23 52
vertex 0.5 23 52
vertex 0.5 23 56
endloop
endfacet
facet normal 0 1 0
outer loop
vertex 2.5 23 52
vertex 0.5 23 56
vertex 2.5 23 56
endloop
endfacet
facet normal -1 0 0
outer loop
vertex 0.5 23 52
vertex 0.5 3 52
vertex 0.5 3 56
endloop
endfacet
facet normal -1 0 0
outer loop
vertex 0.5 23 52
vertex 0.5 3 56
vertex 0.5 23 56
endloop
endfacet
facet normal 0 0 1
outer loop
vertex 0.5 3 56
vertex 2.5 3 56
vertex 2.5 23 56
endloop
endfacet
facet normal 0 0 1
outer loop
vertex 0.5 3 56
vertex 2.5 23 56
vertex 0.5 23 56
endloop
endfacet
endsolid
solid 36
facet normal 0.980785263325195 0.195090407873189 0
outer loop
vertex 2 9.5 40
vertex 1.96193981170654 9.69134140014648 40
vertex 1.96193981170654 9.69134140014648 52
endloop
endfacet
facet normal 0 0 -1
outer loop
vertex 1.5 9.5 40
vertex 1.96193981170654 9.69134140014648 40
vertex 2 9.5 40
endloop
endfacet
facet normal 0.831470664319523 0.555568658561703 0
outer loop
vertex 1.96193981170654 9.69134140014648 40
vertex 1.85355341434479 9.85355377197266 40
vertex 1.85355341434479 9.85355377197266 52
endloop
endfacet
facet normal 0 0 -1
outer loop
vertex 1.5 9.5 40
vertex 1.85355341434479 9.85355377197266 40
vertex 1.96193981170654 9.69134140014648 40
endloop
endfacet
facet normal 0.555569084830575 0.831470379496779 0
outer loop
vertex 1.85355341434479 9.85355377197266 40
vertex 1.69134175777435 9.96193981170654 40
vertex 1.69134175777435 9.96193981170654 52
endloop
endfacet
facet normal 0 0 -1
outer loop
vertex 1.5 9.5 40
vertex 1.69134175777435 9.96193981170654 40
vertex 1.85355341434479 9.85355377197266 40
endloop
endfacet
facet normal 0.195090057116937 0.980785333094919 0
outer loop
vertex 1.69134175777435 9.96193981170654 40
vertex 1.5 10 40
vertex 1.5 10 52
endloop
endfacet
facet normal 0 0 -1
outer loop
vertex 1.5 9.5 40
vertex 1.5 10 40
vertex 1.69134175777435 9.96193981170654 40
endloop
endfacet
facet normal -0.195090057116937 0.980785333094919 0
outer loop
vertex 1.5 10 40
vertex 1.30865824222565 9.96193981170654 40
vertex 1.30865824222565 9.96193981170654 52
endloop
endfacet
facet normal 0 0 -1
outer loop
vertex 1.5 9.5 40
vertex 1.30865824222565 9.96193981170654 40
vertex 1.5 10 40
endloop
endfacet
facet normal -0.555569084830575 0.831470379496779 0
outer loop
vertex 1.30865824222565 9.96193981170654 40
vertex 1.14644658565521 9.85355377197266 40
vertex 1.14644658565521 9.85355377197266 52
endloop
endfacet
facet normal 0 0 -1
outer loop
vertex 1.5 9.5 40
vertex 1.14644658565521 9.85355377197266 40
vertex 1.30865824222565 9.96193981170654 40
endloop
endfacet
facet normal -0.831470664319523 0.555568658561703 0
outer loop
vertex 1.14644658565521 9.85355377197266 40
vertex 1.03806018829346 9.69134140014648 40
vertex 1.03806018829346 9.69134140014648 52
endloop
endfacet
facet normal 0 0 -1
outer loop
vertex 1.5 9.5 40
vertex 1.03806018829346 9.69134140014648 40
vertex 1.14644658565521 9.85355377197266 40
endloop
endfacet
facet normal -0.980785263325195 0.195090407873189 0
outer loop
vertex 1.03806018829346 9.69134140014648 40
vertex 1 9.5 40
vertex 1 9.5 52
endloop
endfacet
facet normal 0 0 -1
outer loop
vertex 1.5 9.5 40
vertex 1 9.5 40
vertex 1.03806018829346 9.69134140014648 40
endloop
endfacet
facet normal -0.980785263325195 -0.195090407873189 0
outer loop
vertex 1 9.5 40
vertex 1.03806018829346 9.30865859985352 40
vertex 1.03806018829346 9.30865859985352 52
endloop
endfacet
facet normal 0 0 -1
outer loop
vertex 1.5 9.5 40
vertex 1.03806018829346 9.30865859985352 40
vertex 1 9.5 40
endloop
endfacet
facet normal -0.831470664319523 -0.555568658561703 0
outer loop
vertex 1.03806018829346 9.30865859985352 40
vertex 1.14644658565521 9.14644622802734 40
vertex 1.14644658565521 9.14644622802734 52
endloop
endfacet
facet normal 0 0 -1
outer loop
vertex 1.5 9.5 40
vertex 1.14644658565521 9.14644622802734 40
vertex 1.03806018829346 9.30865859985352 40
endloop
endfacet
facet normal -0.555569084830575 -0.831470379496779 0
outer loop
vertex 1.14644658565521 9.14644622802734 40
vertex 1.30865824222565 9.03806018829346 40
vertex 1.30865824222565 9.03806018829346 52
endloop
endfacet
facet normal 0 0 -1
outer loop
vertex 1.5 9.5 40
vertex 1.30865824222565 9.03806018829346 40
vertex 1.14644658565521 9.14644622802734 40
endloop
endfacet
facet normal -0.195090057116937 -0.980785333094919 0
outer loop
vertex 1.30865824222565 9.03806018829346 40
vertex 1.5 9 40
vertex 1.5 9 52
endloop
endfacet
facet normal 0 0 -1
outer loop
vertex 1.5 9.5 40
vertex 1.5 9 40
vertex 1.30865824222565 9.03806018829346 40
endloop
endfacet
facet normal 0.195090057116937 -0.980785333094919 0
outer loop
vertex 1.5 9 40
vertex 1.69134175777435 9.03806018829346 40
vertex 1.69134175777435 9.03806018829346 52
endloop
endfacet
facet normal 0 0 -1
outer loop
vertex 1.5 9.5 40
vertex 1.69134175777435 9.03806018829346 40
vertex 1.5 9 40
endloop
endfacet
facet normal 0.555569084830575 -0.831470379496779 0
outer loop
vertex 1.69134175777435 9.03806018829346 40
vertex 1.85355341434479 9.14644622802734 40
vertex 1.85355341434479 9.14644622802734 52
endloop
endfacet
facet normal 0 0 -1
outer loop
vertex 1.5 9.5 40
vertex 1.85355341434479 9.14644622802734 40
vertex 1.69134175777435 9.03806018829346 40
endloop
endfacet
facet normal 0.831470664319523 -0.555568658561703 0
outer loop
vertex 1.85355341434479 9.14644622802734 40
vertex 1.96193981170654 9.30865859985352 40
vertex 1.96193981170654 9.30865859985352 52
endloop
endfacet
facet normal 0 0 -1
outer loop
vertex 1.5 9.5 40
vertex 1.96193981170654 9.30865859985352 40
vertex 1.85355341434479 9.14644622802734 40
endloop
endfacet
facet normal 0.980785263325195 -0.195090407873189 0
outer loop
vertex 1.96193981170654 9.30865859985352 40
vertex 2 9.5 40
vertex 2 9.5 52
endloop
endfacet
facet normal 0 0 -1
outer loop
vertex 1.5 9.5 40
vertex 2 9.5 40
vertex 1.96193981170654 9.30865859985352 40
endloop
endfacet
facet normal 0.980785263325195 0.195090407873189 0
outer loop
vertex 2 9.5 40
vertex 1.96193981170654 9.69134140014648 52
vertex 2 9.5 52
endloop
endfacet
facet normal 0 0 1
outer loop
vertex 1.5 9.5 52
vertex 2 9.5 52
vertex 1.96193981170654 9.69134140014648 52
endloop
endfacet
facet normal 0.831470664319523 0.555568658561703 0
outer loop
vertex 1.96193981170654 9.69134140014648 40
vertex 1.85355341434479 9.85355377197266 52
vertex 1.96193981170654 9.69134140014648 52
endloop
endfacet
facet normal 0 0 1
outer loop
vertex 1.5 9.5 52
vertex 1.96193981170654 9.69134140014648 52
vertex 1.85355341434479 9.85355377197266 52
endloop
endfacet
facet normal 0.555569084830575 0.831470379496779 0
outer loop
vertex 1.85355341434479 9.85355377197266 40
vertex 1.69134175777435 9.96193981170654 52
vertex 1.85355341434479 9.85355377197266 52
endloop
endfacet
facet normal 0 0 1
outer loop
vertex 1.5 9.5 52
vertex 1.85355341434479 9.85355377197266 52
vertex 1.69134175777435 9.96193981170654 52
endloop
endfacet
facet normal 0.195090057116937 0.980785333094919 0
outer loop
vertex 1.69134175777435 9.96193981170654 40
vertex 1.5 10 52
vertex 1.69134175777435 9.96193981170654 52
endloop
endfacet
facet normal 0 0 1
outer loop
vertex 1.5 9.5 52
vertex 1.69134175777435 9.96193981170654 52
vertex 1.5 10 52
endloop
endfacet
facet normal -0.195090057116937 0.980785333094919 0
outer loop
vertex 1.5 10 40
vertex 1.30865824222565 9.96193981170654 52
vertex 1.5 10 52
endloop
endfacet
facet normal 0 0 1
outer loop
vertex 1.5 9.5 52
vertex 1.5 10 52
vertex 1.30865824222565 9.96193981170654 52
endloop
endfacet
facet normal -0.555569084830575 0.831470379496779 0
outer loop
vertex 1.30865824222565 9.96193981170654 40
vertex 1.14644658565521 9.85355377197266 52
vertex 1.30865824222565 9.96193981170654 52
endloop
endfacet
facet normal 0 0 1
outer loop
vertex 1.5 9.5 52
vertex 1.30865824222565 9.96193981170654 52
vertex 1.14644658565521 9.85355377197266 52
endloop
endfacet
facet normal -0.831470664319523 0.555568658561703 0
outer loop
vertex 1.14644658565521 9.85355377197266 40
vertex 1.03806018829346 9.69134140014648 52
vertex 1.14644658565521 9.85355377197266 52
endloop
endfacet
facet normal 0 0 1
outer loop
vertex 1.5 9.5 52
vertex 1.14644658565521 9.85355377197266 52
vertex 1.03806018829346 9.69134140014648 52
endloop
endfacet
facet normal -0.980785263325195 0.195090407873189 0
outer loop
vertex 1.03806018829346 9.69134140014648 40
vertex 1 9.5 52
vertex 1.03806018829346 9.69134140014648 52
endloop
endfacet
facet normal 0 0 1
outer loop
vertex 1.5 9.5 52
vertex 1.03806018829346 9.69134140014648 52
vertex 1 9.5 52
endloop
endfacet
facet normal -0.980785263325195 -0.195090407873189 0
outer loop
vertex 1 9.5 40
vertex 1.03806018829346 9.30865859985352 52
vertex 1 9.5 52
endloop
endfacet
facet normal 0 0 1
outer loop
vertex 1.5 9.5 52
vertex 1 9.5 52
vertex 1.03806018829346 9.30865859985352 52
endloop
endfacet
facet normal -0.831470664319523 -0.555568658561703 0
outer loop
vertex 1.03806018829346 9.30865859985352 40
vertex 1.14644658565521 9.14644622802734 52
vertex 1.03806018829346 9.30865859985352 52
endloop
endfacet
facet normal 0 0 1
outer loop
vertex 1.5 9.5 52
vertex 1.03806018829346 9.30865859985352 52
vertex 1.14644658565521 9.14644622802734 52
endloop
endfacet
facet normal -0.555569084830575 -0.831470379496779 0
outer loop
vertex 1.14644658565521 9.14644622802734 40
vertex 1.30865824222565 9.03806018829346 52
vertex 1.14644658565521 9.14644622802734 52
endloop
endfacet
facet normal 0 0 1
outer loop
vertex 1.5 9.5 52
vertex 1.14644658565521 9.14644622802734 52
vertex 1.30865824222565 9.03806018829346 52
endloop
endfacet
facet normal -0.195090057116937 -0.980785333094919 0
outer loop
vertex 1.30865824222565 9.03806018829346 40
vertex 1.5 9 52
vertex 1.30865824222565 9.03806018829346 52
endloop
endfacet
facet normal 0 0 1
outer loop
vertex 1.5 9.5 52
vertex 1.30865824222565 9.03806018829346 52
vertex 1.5 9 52
endloop
endfacet
facet normal 0.195090057116937 -0.980785333094919 0
outer loop
vertex 1.5 9 40
vertex 1.69134175777435 9.03806018829346 52
vertex 1.5 9 52
endloop
endfacet
facet normal 0 0 1
outer loop
vertex 1.5 9.5 52
vertex 1.5 9 52
vertex 1.69134175777435 9.03806018829346 52
endloop
endfacet
facet normal 0.555569084830575 -0.831470379496779 0
outer loop
vertex 1.69134175777435 9.03806018829346 40
vertex 1.85355341434479 9.14644622802734 52
vertex 1.69134175777435 9.03806018829346 52
endloop
endfacet
facet normal 0 0 1
outer loop
vertex 1.5 9.5 52
vertex 1.69134175777435 9.03806018829346 52
vertex 1.85355341434479 9.14644622802734 52
endloop
endfacet
facet normal 0.831470664319523 -0.555568658561703 0
outer loop
vertex 1.85355341434479 9.14644622802734 40
vertex 1.96193981170654 9.30865859985352 52
vertex 1.85355341434479 9.14644622802734 52
endloop
endfacet
facet normal 0 0 1
outer loop
vertex 1.5 9.5 52
vertex 1.85355341434479 9.14644622802734 52
vertex 1.96193981170654 9.30865859985352 52
endloop
endfacet
facet normal 0.980785263325195 -0.195090407873189 0
outer loop
vertex 1.96193981170654 9.30865859985352 40
vertex 2 9.5 52
vertex 1.96193981170654 9.30865859985352 52
endloop
endfacet
facet normal 0 0 1
outer loop
vertex 1.5 9.5 52
vertex 1.96193981170654 9.30865859985352 52
vertex 2 9.5 52
endloop
endfacet
endsolid
solid 38
facet normal 0.980785263325195 0.195090407873189 0
outer loop
vertex 2 16.5 40
vertex 1.96193981170654 16.6913414001465 40
vertex 1.96193981170654 16.6913414001465 52
endloop
endfacet
facet normal 0 0 -1
outer loop
vertex 1.5 16.5 40
vertex 1.96193981170654 16.6913414001465 40
vertex 2 16.5 40
endloop
endfacet
facet normal 0.831470664319523 0.555568658561703 0
outer loop
vertex 1.96193981170654 16.6913414001465 40
vertex 1.85355341434479 16.8535537719727 40
vertex 1.85355341434479 16.8535537719727 52
endloop
endfacet
facet normal 0 0 -1
outer loop
vertex 1.5 16.5 40
vertex 1.85355341434479 16.8535537719727 40
vertex 1.96193981170654 16.6913414001465 40
endloop
endfacet
facet normal 0.555565705270711 0.8314726376298 0
outer loop
vertex 1.85355341434479 16.8535537719727 40
vertex 1.69134175777435 16.9619388580322 40
vertex 1.69134175777435 16.9619388580322 52
endloop
endfacet
facet normal 0 0 -1
outer loop
vertex 1.5 16.5 40
vertex 1.69134175777435 16.9619388580322 40
vertex 1.85355341434479 16.8535537719727 40
endloop
endfacet
facet normal 0.195094759430591 0.980784397736179 0
outer loop
vertex 1.69134175777435 16.9619388580322 40
vertex 1.5 17 40
vertex 1.5 17 52
endloop
endfacet
facet normal 0 0 -1
outer loop
vertex 1.5 16.5 40
vertex 1.5 17 40
vertex 1.69134175777435 16.9619388580322 40
endloop
endfacet
facet normal -0.195094759430591 0.980784397736179 0
outer loop
vertex 1.5 17 40
vertex 1.30865824222565 16.9619388580322 40
vertex 1.30865824222565 16.9619388580322 52
endloop
endfacet
facet normal 0 0 -1
outer loop
vertex 1.5 16.5 40
vertex 1.30865824222565 16.9619388580322 40
vertex 1.5 17 40
endloop
endfacet
facet normal -0.555565705270711 0.8314726376298 0
outer loop
vertex 1.30865824222565 16.9619388580322 40
vertex 1.14644658565521 16.8535537719727 40
vertex 1.14644658565521 16.8535537719727 52
endloop
endfacet
facet normal 0 0 -1
outer loop
vertex 1.5 16.5 40
vertex 1.14644658565521 16.8535537719727 40
vertex 1.30865824222565 16.9619388580322 40
endloop
endfacet
facet normal -0.831470664319523 0.555568658561703 0
outer loop
vertex 1.14644658565521 16.8535537719727 40
vertex 1.03806018829346 16.6913414001465 40
vertex 1.03806018829346 16.6913414001465 52
endloop
endfacet
facet normal 0 0 -1
outer loop
vertex 1.5 16.5 40
vertex 1.03806018829346 16.6913414001465 40
vertex 1.14644658565521 16.8535537719727 40
endloop
endfacet
facet normal -0.980785263325195 0.195090407873189 0
outer loop
vertex 1.03806018829346 16.6913414001465 40
vertex 1 16.5 40
vertex 1 16.5 52
endloop
endfacet
facet normal 0 0 -1
outer loop
vertex 1.5 16.5 40
vertex 1 16.5 40
vertex 1.03806018829346 16.6913414001465 40
endloop
endfacet
facet normal -0.980785263325195 -0.195090407873189 0
outer loop
vertex 1 16.5 40
vertex 1.03806018829346 16.3086585998535 40
vertex 1.03806018829346 16.3086585998535 52
endloop
endfacet
facet normal 0 0 -1
outer loop
vertex 1.5 16.5 40
vertex 1.03806018829346 16.3086585998535 40
vertex 1 16.5 40
endloop
endfacet
facet normal -0.831470664319523 -0.555568658561703 0
outer loop
vertex 1.03806018829346 16.3086585998535 40
vertex 1.14644658565521 16.1464462280273 40
vertex 1.14644658565521 16.1464462280273 52
endloop
endfacet
facet normal 0 0 -1
outer loop
vertex 1.5 16.5 40
vertex 1.14644658565521 16.1464462280273 40
vertex 1.03806018829346 16.3086585998535 40
endloop
endfacet
facet normal -0.555565705270711 -0.8314726376298 0
outer loop
vertex 1.14644658565521 16.1464462280273 40
vertex 1.30865824222565 16.0380611419678 40
vertex 1.30865824222565 16.0380611419678 52
endloop
endfacet
facet normal 0 0 -1
outer loop
vertex 1.5 16.5 40
vertex 1.30865824222565 16.0380611419678 40
vertex 1.14644658565521 16.1464462280273 40
endloop
endfacet
facet normal -0.195094759430591 -0.980784397736179 0
outer loop
vertex 1.30865824222565 16.0380611419678 40
vertex 1.5 16 40
vertex 1.5 16 52
endloop
endfacet
facet normal 0 0 -1
outer loop
vertex 1.5 16.5 40
vertex 1.5 16 40
vertex 1.30865824222565 16.0380611419678 40
endloop
endfacet
facet normal 0.195094759430591 -0.980784397736179 0
outer loop
vertex 1.5 16 40
vertex 1.69134175777435 16.0380611419678 40
vertex 1.69134175777435 16.0380611419678 52
endloop
endfacet
facet normal 0 0 -1
outer loop
vertex 1.5 16.5 40
vertex 1.69134175777435 16.0380611419678 40
vertex 1.5 16 40
endloop
endfacet
facet normal 0.555565705270711 -0.8314726376298 0
outer loop
vertex 1.69134175777435 16.0380611419678 40
vertex 1.85355341434479 16.1464462280273 40
vertex 1.85355341434479 16.1464462280273 52
endloop
endfacet
facet normal 0 0 -1
outer loop
vertex 1.5 16.5 40
vertex 1.85355341434479 16.1464462280273 40
vertex 1.69134175777435 16.0380611419678 40
endloop
endfacet
facet normal 0.831470664319523 -0.555568658561703 0
outer loop
vertex 1.85355341434479 16.1464462280273 40
vertex 1.96193981170654 16.3086585998535 40
vertex 1.96193981170654 16.3086585998535 52
endloop
endfacet
facet normal 0 0 -1
outer loop
vertex 1.5 16.5 40
vertex 1.96193981170654 16.3086585998535 40
vertex 1.85355341434479 16.1464462280273 40
endloop
endfacet
facet normal 0.980785263325195 -0.195090407873189 0
outer loop
vertex 1.96193981170654 16.3086585998535 40
vertex 2 16.5 40
vertex 2 16.5 52
endloop
endfacet
facet normal 0 0 -1
outer loop
vertex 1.5 16.5 40
vertex 2 16.5 40
vertex 1.96193981170654 16.3086585998535 40
endloop
endfacet
facet normal 0.980785263325195 0.195090407873189 0
outer loop
vertex 2 16.5 40
vertex 1.96193981170654 16.6913414001465 52
vertex 2 16.5 52
endloop
endfacet
facet normal 0 0 1
outer loop
vertex 1.5 16.5 52
vertex 2 16.5 52
vertex 1.96193981170654 16.6913414001465 52
endloop
endfacet
facet normal 0.831470664319523 0.555568658561703 0
outer loop
vertex 1.96193981170654 16.6913414001465 40
vertex 1.85355341434479 16.8535537719727 52
vertex 1.96193981170654 16.6913414001465 52
endloop
endfacet
facet normal 0 0 1
outer loop
vertex 1.5 16.5 52
vertex 1.96193981170654 16.6913414001465 52
vertex 1.85355341434479 16.8535537719727 52
endloop
endfacet
facet normal 0.555565705270711 0.8314726376298 0
outer loop
vertex 1.85355341434479 16.8535537719727 40
vertex 1.69134175777435 16.9619388580322 52
vertex 1.85355341434479 16.8535537719727 52
endloop
endfacet
facet normal 0 0 1
outer loop
vertex 1.5 16.5 52
vertex 1.85355341434479 16.8535537719727 52
vertex 1.69134175777435 16.9619388580322 52
endloop
endfacet
facet normal 0.195094759430591 0.980784397736179 0
outer loop
vertex 1.69134175777435 16.9619388580322 40
vertex 1.5 17 52
vertex 1.69134175777435 16.9619388580322 52
endloop
endfacet
facet normal 0 0 1
outer loop
vertex 1.5 16.5 52
vertex 1.69134175777435 16.9619388580322 52
vertex 1.5 17 52
endloop
endfacet
facet normal -0.195094759430591 0.980784397736179 0
outer loop
vertex 1.5 17 40
vertex 1.30865824222565 16.9619388580322 52
vertex 1.5 17 52
endloop
endfacet
facet normal 0 0 1
outer loop
vertex 1.5 16.5 52
vertex 1.5 17 52
vertex 1.30865824222565 16.9619388580322 52
endloop
endfacet
facet normal -0.555565705270711 0.8314726376298 0
outer loop
vertex 1.30865824222565 16.9619388580322 40
vertex 1.14644658565521 16.8535537719727 52
vertex 1.30865824222565 16.9619388580322 52
endloop
endfacet
facet normal 0 0 1
outer loop
vertex 1.5 16.5 52
vertex 1.30865824222565 16.9619388580322 52
vertex 1.14644658565521 16.8535537719727 52
endloop
endfacet
facet normal -0.831470664319523 0.555568658561703 0
outer loop
vertex 1.14644658565521 16.8535537719727 40
vertex 1.03806018829346 16.6913414001465 52
vertex 1.14644658565521 16.8535537719727 52
endloop
endfacet
facet normal 0 0 1
outer loop
vertex 1.5 16.5 52
vertex 1.14644658565521 16.8535537719727 52
vertex 1.03806018829346 16.6913414001465 52
endloop
endfacet
facet normal -0.980785263325195 0.195090407873189 0
outer loop
vertex 1.03806018829346 16.6913414001465 40
vertex 1 16.5 52
vertex 1.03806018829346 16.6913414001465 52
endloop
endfacet
facet normal 0 0 1
outer loop
vertex 1.5 16.5 52
vertex 1.03806018829346 16.6913414001465 52
vertex 1 16.5 52
endloop
endfacet
facet normal -0.980785263325195 -0.195090407873189 0
outer loop
vertex 1 16.5 40
vertex 1.03806018829346 16.3086585998535 52
vertex 1 16.5 52
endloop
endfacet
facet normal 0 0 1
outer loop
vertex 1.5 16.5 52
vertex 1 16.5 52
vertex 1.03806018829346 16.3086585998535 52
endloop
endfacet
facet normal -0.831470664319523 -0.555568658561703 0
outer loop
vertex 1.03806018829346 16.3086585998535 40
vertex 1.14644658565521 16.1464462280273 52
vertex 1.03806018829346 16.3086585998535 52
endloop
endfacet
facet normal 0 0 1
outer loop
vertex 1.5 16.5 52
vertex 1.03806018829346 16.3086585998535 52
vertex 1.14644658565521 16.1464462280273 52
endloop
endfacet
facet normal -0.555565705270711 -0.8314726376298 0
outer loop
vertex 1.14644658565521 16.1464462280273 40
vertex 1.30865824222565 16.0380611419678 52
vertex 1.14644658565521 16.1464462280273 52
endloop
endfacet
facet normal 0 0 1
outer loop
vertex 1.5 16.5 52
vertex 1.14644658565521 16.1464462280273 52
vertex 1.30865824222565 16.0380611419678 52
endloop
endfacet
facet normal -0.195094759430591 -0.980784397736179 0
outer loop
vertex 1.30865824222565 16.0380611419678 40
vertex 1.5 16 52
vertex 1.30865824222565 16.0380611419678 52
endloop
endfacet
facet normal 0 0 1
outer loop
vertex 1.5 16.5 52
vertex 1.30865824222565 16.0380611419678 52
vertex 1.5 16 52
endloop
endfacet
facet normal 0.195094759430591 -0.980784397736179 0
outer loop
vertex 1.5 16 40
vertex 1.69134175777435 16.0380611419678 52
vertex 1.5 16 52
endloop
endfacet
facet normal 0 0 1
outer loop
vertex 1.5 16.5 52
vertex 1.5 16 52
vertex 1.69134175777435 16.0380611419678 52
endloop
endfacet
facet normal 0.555565705270711 -0.8314726376298 0
outer loop
vertex 1.69134175777435 16.0380611419678 40
vertex 1.85355341434479 16.1464462280273 52
vertex 1.69134175777435 16.0380611419678 52
endloop
endfacet
facet normal 0 0 1
outer loop
vertex 1.5 16.5 52
vertex 1.69134175777435 16.0380611419678 52
vertex 1.85355341434479 16.1464462280273 52
endloop
endfacet
facet normal 0.831470664319523 -0.555568658561703 0
outer loop
vertex 1.85355341434479 16.1464462280273 40
vertex 1.96193981170654 16.3086585998535 52
vertex 1.85355341434479 16.1464462280273 52
endloop
endfacet
facet normal 0 0 1
outer loop
vertex 1.5 16.5 52
vertex 1.85355341434479 16.1464462280273 52
vertex 1.96193981170654 16.3086585998535 52
endloop
endfacet
facet normal 0.980785263325195 -0.195090407873189 0
outer loop
vertex 1.96193981170654 16.3086585998535 40
vertex 2 16.5 52
vertex 1.96193981170654 16.3086585998535 52
endloop
endfacet
facet normal 0 0 1
outer loop
vertex 1.5 16.5 52
vertex 1.96193981170654 16.3086585998535 52
vertex 2 16.5 52
endloop
endfacet
endsolid
